<?xml version="1.0" encoding="UTF-8"?>
<svg version="1.1" xmlns="http://www.w3.org/2000/svg" width="127" height="126">
<path d="M0 0 C41.91 0 83.82 0 127 0 C127 41.58 127 83.16 127 126 C85.09 126 43.18 126 0 126 C0 84.42 0 42.84 0 0 Z " fill="#0B1F2D" transform="translate(0,0)"/>
<path d="M0 0 C3.03177755 1.10277156 5.53529147 2.82042643 8.22265625 4.5925293 C9.3003125 5.29120117 10.37796875 5.98987305 11.48828125 6.7097168 C12.308125 7.37229492 13.12796875 8.03487305 13.97265625 8.7175293 C13.97265625 9.7075293 13.97265625 10.6975293 13.97265625 11.7175293 C11.890625 13.40112305 11.890625 13.40112305 9.16015625 15.1550293 C5.7315753 17.36653822 3.12878268 19.21382385 0.97265625 22.7175293 C0.25220258 25.86871255 0.25220258 25.86871255 -0.02734375 28.7175293 C1.41104177 27.92747268 2.8483304 27.13541884 4.28515625 26.3425293 C5.08566406 25.90166992 5.88617188 25.46081055 6.7109375 25.0065918 C8.50793568 23.98239594 10.25166333 22.86485791 11.97265625 21.7175293 C14.41015625 21.3425293 14.41015625 21.3425293 16.97265625 21.7175293 C18.33010988 23.02629788 19.65976741 24.36406026 20.97265625 25.7175293 C22.5848002 27.03083681 24.23219088 28.30193446 25.91015625 29.5300293 C26.74417969 30.15522461 27.57820313 30.78041992 28.4375 31.42456055 C31.50844057 32.99078756 32.74611493 32.73529736 35.97265625 31.7175293 C36.73578125 31.5319043 37.49890625 31.3462793 38.28515625 31.1550293 C38.84203125 31.0106543 39.39890625 30.8662793 39.97265625 30.7175293 C39.97265625 29.7275293 39.97265625 28.7375293 39.97265625 27.7175293 C42.34765625 27.5925293 42.34765625 27.5925293 44.97265625 27.7175293 C48.75708033 31.50195338 47.7044287 37.72155133 47.74707031 42.82958984 C47.53148236 49.89615127 47.53148236 49.89615127 45.16015625 53.3815918 C42.52097221 55.1664246 39.87968327 56.41671954 36.97265625 57.7175293 C34.80629016 59.14518289 32.66027384 60.60417045 30.53515625 62.0925293 C27.62344199 64.05898039 25.30615325 65.60636363 21.97265625 66.7175293 C21.97265625 61.1075293 21.97265625 55.4975293 21.97265625 49.7175293 C20.8640625 50.41620117 19.75546875 51.11487305 18.61328125 51.8347168 C17.14979974 52.75408339 15.68625474 53.67334893 14.22265625 54.5925293 C13.49304688 55.05272461 12.7634375 55.51291992 12.01171875 55.98706055 C11.30273438 56.43178711 10.59375 56.87651367 9.86328125 57.3347168 C9.21391602 57.74318848 8.56455078 58.15166016 7.89550781 58.57250977 C5.97488712 59.71620086 3.97201878 60.71784803 1.97265625 61.7175293 C1.97265625 69.6375293 1.97265625 77.5575293 1.97265625 85.7175293 C11.45002293 79.85441262 20.6968081 73.88065476 29.78369141 67.43237305 C31.79605431 66.0140893 33.82060789 64.61472309 35.84765625 63.2175293 C36.490979 62.75926758 37.13430176 62.30100586 37.79711914 61.82885742 C42.47723509 58.63117852 42.47723509 58.63117852 45.18017578 59.10229492 C46.06745361 59.40683594 46.06745361 59.40683594 46.97265625 59.7175293 C48.61522909 67.34209969 49.73622563 75.25709877 46.97265625 82.7175293 C41.18224322 89.51519298 32.84253226 93.71014667 25.11035156 97.96362305 C21.00160504 100.26032667 17.15143598 102.85274872 13.28515625 105.5300293 C11.18153091 106.92667832 9.07742505 108.32260409 6.97265625 109.7175293 C5.93496094 110.48452148 4.89726563 111.25151367 3.828125 112.04174805 C0.97265625 113.7175293 0.97265625 113.7175293 -0.92724609 113.49780273 C-3.38678924 112.58398038 -5.31170693 111.38222234 -7.484375 109.90893555 C-8.34256836 109.33143555 -9.20076172 108.75393555 -10.08496094 108.15893555 C-10.99407227 107.53889648 -11.90318359 106.91885742 -12.83984375 106.2800293 C-14.73695735 105.00004904 -16.6340929 103.72010132 -18.53125 102.44018555 C-19.93141357 101.49103271 -19.93141357 101.49103271 -21.35986328 100.52270508 C-24.98637296 98.06852125 -28.6306024 95.64149741 -32.27734375 93.2175293 C-35.60546875 90.9987793 -35.60546875 90.9987793 -37.21899414 89.87817383 C-39.08291407 88.63583044 -39.08291407 88.63583044 -41.42749023 87.52172852 C-44.03594071 86.11262743 -45.99378573 84.88247969 -48.02734375 82.7175293 C-49.11871083 78.70469083 -48.88669623 74.96294327 -48.58984375 70.8425293 C-48.54923828 69.77260742 -48.50863281 68.70268555 -48.46679688 67.6003418 C-48.36103515 64.96805003 -48.21348593 62.34515693 -48.02734375 59.7175293 C-46.17236328 59.13793945 -46.17236328 59.13793945 -44.02734375 58.7175293 C-41.70703125 59.9909668 -41.70703125 59.9909668 -38.90234375 62.0925293 C-32.45175189 66.79462714 -25.81659706 71.19332163 -19.13067627 75.550354 C-17.34932121 76.71135236 -15.56981817 77.87514789 -13.79052734 79.03930664 C-8.53117999 82.58701797 -8.53117999 82.58701797 -3.02734375 85.7175293 C-1.39442837 71.98209344 -1.39442837 71.98209344 -5.7109375 59.51733398 C-10.26274227 55.59489887 -15.5165878 53.02677676 -21.02734375 50.7175293 C-21.68734375 50.3875293 -22.34734375 50.0575293 -23.02734375 49.7175293 C-23.02734375 54.9975293 -23.02734375 60.2775293 -23.02734375 65.7175293 C-27.1239855 64.69336886 -29.26905125 63.39478886 -32.71484375 61.0300293 C-33.68808594 60.36616211 -34.66132812 59.70229492 -35.6640625 59.01831055 C-36.17960693 58.64996094 -36.69515137 58.28161133 -37.22631836 57.90209961 C-39.07873237 56.63554497 -39.07873237 56.63554497 -41.40844727 55.50952148 C-43.99589028 54.09944024 -45.9835284 52.84735966 -48.02734375 50.7175293 C-49.11522532 46.86795994 -48.88882638 43.30341028 -48.58984375 39.3425293 C-48.54923828 38.32030273 -48.50863281 37.29807617 -48.46679688 36.24487305 C-48.36106645 33.73083849 -48.21357161 31.22667116 -48.02734375 28.7175293 C-47.17136597 28.36815308 -47.17136597 28.36815308 -46.2980957 28.01171875 C-40.41816712 25.52078388 -35.60080072 22.50745903 -30.56054688 18.63354492 C-26.54245854 15.68435554 -26.54245854 15.68435554 -23.84375 15.8581543 C-21.21363995 17.10250744 -18.60614982 18.36951703 -16.02734375 19.7175293 C-16.18976562 19.11166992 -16.3521875 18.50581055 -16.51953125 17.8815918 C-16.99821824 14.70662704 -17.00296212 12.80698747 -16.02734375 9.7175293 C-14.02175628 7.46442152 -11.740647 5.75725856 -9.27734375 4.0300293 C-8.64425293 3.5841748 -8.01116211 3.13832031 -7.35888672 2.67895508 C-2.67282466 -0.37240584 -2.67282466 -0.37240584 0 0 Z " fill="#2087C1" transform="translate(57.02734375,5.282470703125)"/>
<path d="M0 0 C3.03177755 1.10277156 5.53529147 2.82042643 8.22265625 4.5925293 C9.3003125 5.29120117 10.37796875 5.98987305 11.48828125 6.7097168 C12.308125 7.37229492 13.12796875 8.03487305 13.97265625 8.7175293 C13.97265625 9.7075293 13.97265625 10.6975293 13.97265625 11.7175293 C11.890625 13.40112305 11.890625 13.40112305 9.16015625 15.1550293 C5.7315753 17.36653822 3.12878268 19.21382385 0.97265625 22.7175293 C0.25220258 25.86871255 0.25220258 25.86871255 -0.02734375 28.7175293 C0.63265625 29.0475293 1.29265625 29.3775293 1.97265625 29.7175293 C-1.02734375 30.7175293 -1.02734375 30.7175293 -4.21484375 29.2800293 C-5.14296875 28.7644043 -6.07109375 28.2487793 -7.02734375 27.7175293 C-5.04734375 29.0375293 -3.06734375 30.3575293 -1.02734375 31.7175293 C-2.49064489 36.10743272 -5.54016276 37.51394229 -9.27734375 40.0300293 C-9.94636719 40.51020508 -10.61539063 40.99038086 -11.3046875 41.48510742 C-13.1830131 42.75639066 -14.93031881 43.85254597 -17.02734375 44.7175293 C-19.7109375 44.19799805 -19.7109375 44.19799805 -22.02734375 42.7175293 C-22.83816406 42.2431543 -23.64898437 41.7687793 -24.484375 41.2800293 C-25.26167969 40.7644043 -26.03898437 40.2487793 -26.83984375 39.7175293 C-27.63003906 39.2019043 -28.42023437 38.6862793 -29.234375 38.1550293 C-29.82605469 37.6806543 -30.41773438 37.2062793 -31.02734375 36.7175293 C-31.02734375 36.0575293 -31.02734375 35.3975293 -31.02734375 34.7175293 C-29.55859375 33.48071289 -29.55859375 33.48071289 -27.52734375 32.1159668 C-26.80546875 31.62612305 -26.08359375 31.1362793 -25.33984375 30.6315918 C-24.57671875 30.12370117 -23.81359375 29.61581055 -23.02734375 29.0925293 C-22.26421875 28.5769043 -21.50109375 28.0612793 -20.71484375 27.5300293 C-18.82302423 26.25305112 -16.92714477 24.98258962 -15.02734375 23.7175293 C-15.68734375 23.0575293 -16.34734375 22.3975293 -17.02734375 21.7175293 C-17.02734375 22.3775293 -17.02734375 23.0375293 -17.02734375 23.7175293 C-18.91415877 25.12167071 -20.86364314 26.44225867 -22.83984375 27.7175293 C-23.91878906 28.4187793 -24.99773438 29.1200293 -26.109375 29.8425293 C-27.07230469 30.4612793 -28.03523438 31.0800293 -29.02734375 31.7175293 C-30.01734375 32.3775293 -31.00734375 33.0375293 -32.02734375 33.7175293 C-35.41427567 33.37015166 -38.06455661 32.36352215 -41.02734375 30.7175293 C-41.02734375 30.0575293 -41.02734375 29.3975293 -41.02734375 28.7175293 C-41.68734375 28.3875293 -42.34734375 28.0575293 -43.02734375 27.7175293 C-42.38667969 27.27022461 -41.74601562 26.82291992 -41.0859375 26.36206055 C-40.22097656 25.75749023 -39.35601562 25.15291992 -38.46484375 24.5300293 C-37.55347656 23.89709961 -36.64210938 23.26416992 -35.703125 22.61206055 C-34.09501713 21.47347322 -32.50283556 20.31110925 -30.9453125 19.10424805 C-29.15234375 17.7175293 -29.15234375 17.7175293 -26.02734375 15.7175293 C-22.34682636 16.22991505 -19.29522577 18.00931824 -16.02734375 19.7175293 C-16.18976562 19.11166992 -16.3521875 18.50581055 -16.51953125 17.8815918 C-16.99821824 14.70662704 -17.00296212 12.80698747 -16.02734375 9.7175293 C-14.02175628 7.46442152 -11.740647 5.75725856 -9.27734375 4.0300293 C-8.64425293 3.5841748 -8.01116211 3.13832031 -7.35888672 2.67895508 C-2.67282466 -0.37240584 -2.67282466 -0.37240584 0 0 Z " fill="#102C42" transform="translate(57.02734375,5.282470703125)"/>
<path d="M0 0 C0.13536629 2.41854446 0.23420279 4.82949783 0.3125 7.25 C0.35439453 7.93191406 0.39628906 8.61382812 0.43945312 9.31640625 C0.52231924 12.73049018 0.43590875 14.53326942 -1.93359375 17.0703125 C-2.94550781 17.70710938 -3.95742187 18.34390625 -5 19 C-6.44913163 20.02849414 -7.89403274 21.06296088 -9.3359375 22.1015625 C-11.01396256 23.27841563 -12.69373245 24.45278379 -14.375 25.625 C-15.25462402 26.23875488 -16.13424805 26.85250977 -17.04052734 27.48486328 C-22.54559871 31.31556275 -28.06365279 35.12638353 -33.625 38.875 C-34.24552246 39.2973291 -34.86604492 39.7196582 -35.50537109 40.15478516 C-39.76413217 43 -39.76413217 43 -42 43 C-43.28030547 31.50311556 -43.28030547 31.50311556 -42 26 C-39.01740248 22.37481033 -35.19507844 20.96478357 -31 19 C-28.48427753 17.45806115 -26.05840658 15.79296736 -23.625 14.125 C-22.35188849 13.27555289 -21.07845005 12.42659555 -19.8046875 11.578125 C-17.2658067 9.86993792 -14.75343865 8.13012503 -12.2578125 6.359375 C-11.66661621 5.94155762 -11.07541992 5.52374023 -10.46630859 5.09326172 C-8.84282658 3.94088971 -7.22589164 2.77931016 -5.609375 1.6171875 C-3 0 -3 0 0 0 Z " fill="#0F3047" transform="translate(101,72)"/>
<path d="M0 0 C3.44813543 1.26371456 6.22896032 2.70863761 9.1875 4.875 C14.10203705 8.39277389 19.09588465 11.77431523 24.125 15.125 C24.87676514 15.62757324 25.62853027 16.13014648 26.40307617 16.64794922 C27.13888916 17.1379541 27.87470215 17.62795898 28.6328125 18.1328125 C29.35307617 18.62015869 30.07333984 19.10750488 30.81542969 19.60961914 C32.97970087 21.03782822 32.97970087 21.03782822 35.31738281 22.16967773 C37.49124664 23.29967313 39.24048065 24.29244957 41 26 C41.94616518 29.00025211 41.77086383 31.70537938 41.5 34.8125 C41.46390625 35.60076172 41.4278125 36.38902344 41.390625 37.20117188 C41.29680438 39.13622211 41.15330744 41.06875207 41 43 C33.41353579 39.04522455 26.41776285 34.342945 19.375 29.5 C18.27106589 28.74575326 17.16690032 27.99184518 16.0625 27.23828125 C13.95969992 25.79992527 11.86338039 24.35203455 9.7746582 22.89331055 C8.11242972 21.75907545 6.42205355 20.6624939 4.68432617 19.64770508 C2.22515293 18.17070827 0.27548565 16.97817738 -0.52929688 14.12060547 C-0.68968463 11.92847032 -0.61558935 9.87741189 -0.4375 7.6875 C-0.40591797 6.94693359 -0.37433594 6.20636719 -0.34179688 5.44335938 C-0.25977605 3.62718392 -0.13422221 1.81306511 0 0 Z " fill="#102F46" transform="translate(13,72)"/>
<path d="M0 0 C2.475 0.99 2.475 0.99 5 2 C5.64171143 2.25217285 6.28342285 2.5043457 6.94458008 2.76416016 C11.9960339 4.90908516 16.88961278 7.33769327 20 12 C21.90366183 19.79826294 20.91920674 28.10519256 20 36 C16.28289683 34.64356298 13.1945803 32.95339775 9.91796875 30.7421875 C8.98662109 30.11699219 8.05527344 29.49179688 7.09570312 28.84765625 C6.13599609 28.19667969 5.17628906 27.54570313 4.1875 26.875 C3.20845703 26.21628906 2.22941406 25.55757812 1.22070312 24.87890625 C-1.18903347 23.25674211 -3.59578494 21.63033154 -6 20 C-5.34 19.67 -4.68 19.34 -4 19 C-3.34786708 16.97536745 -3.34786708 16.97536745 -3 15 C-2.01 15.33 -1.02 15.66 0 16 C0 10.72 0 5.44 0 0 Z " fill="#102C42" transform="translate(34,55)"/>
<path d="M0 0 C0 5.61 0 11.22 0 17 C1.32 16.34 2.64 15.68 4 15 C3.67 16.65 3.34 18.3 3 20 C3.66 20.33 4.32 20.66 5 21 C4.34515625 21.4125 3.6903125 21.825 3.015625 22.25 C-3.26072013 26.22147263 -9.43996389 30.29760855 -15.56640625 34.49609375 C-18 36 -18 36 -20 36 C-22.86375222 15.82156125 -22.86375222 15.82156125 -18.265625 9.68554688 C-13.70692914 5.64819123 -6.35694355 0 0 0 Z " fill="#0F2B43" transform="translate(79,55)"/>
<path d="M0 0 C3.01213884 1.29171203 5.6283603 2.97778763 8.36328125 4.78125 C9.4409375 5.47992188 10.51859375 6.17859375 11.62890625 6.8984375 C12.44875 7.56101562 13.26859375 8.22359375 14.11328125 8.90625 C14.11328125 9.89625 14.11328125 10.88625 14.11328125 11.90625 C12.06020214 13.65077386 10.08028938 15.15134298 7.86328125 16.65625 C6.98349609 17.29240234 6.98349609 17.29240234 6.0859375 17.94140625 C1.81415774 20.88845431 1.81415774 20.88845431 -0.88671875 20.95703125 C-3.97814444 19.33282517 -6.80562821 17.37529079 -9.63671875 15.34375 C-10.53970703 14.70663086 -10.53970703 14.70663086 -11.4609375 14.05664062 C-12.94001589 13.01189478 -14.41389134 11.95978984 -15.88671875 10.90625 C-12.87006371 7.78850775 -9.90524602 4.98503217 -6.32421875 2.53125 C-5.58042969 2.00789062 -4.83664063 1.48453125 -4.0703125 0.9453125 C-1.88671875 -0.09375 -1.88671875 -0.09375 0 0 Z " fill="#2081B7" transform="translate(56.88671875,5.09375)"/>
<path d="M0 0 C2.41509239 1.42697135 4.57550269 2.83908561 6.8125 4.5 C7.40998047 4.92925781 8.00746094 5.35851563 8.62304688 5.80078125 C10.08962611 6.8567183 11.54587804 7.92697296 13 9 C10.19761657 11.91240772 7.30782021 14.46476219 4.0625 16.875 C3.22847656 17.51179688 2.39445312 18.14859375 1.53515625 18.8046875 C-1 20 -1 20 -3.453125 19.421875 C-6.30769513 17.82821928 -9.07173223 16.15815012 -11.8125 14.375 C-12.78832031 13.74335937 -13.76414063 13.11171875 -14.76953125 12.4609375 C-15.50558594 11.97882812 -16.24164063 11.49671875 -17 11 C-15.51274143 7.24446438 -13.46311646 5.54833359 -10.1875 3.25 C-9.33542969 2.63640625 -8.48335937 2.0228125 -7.60546875 1.390625 C-4.600952 -0.21298514 -3.34427594 -0.62265798 0 0 Z " fill="#0B2336" transform="translate(59,42)"/>
<path d="M0 0 C2.5546875 1.41015625 2.5546875 1.41015625 4.875 3.0625 C5.65617187 3.61035156 6.43734375 4.15820312 7.2421875 4.72265625 C8.11230469 5.35494141 8.11230469 5.35494141 9 6 C7.53669886 10.38990342 4.48718099 11.79641299 0.75 14.3125 C0.08097656 14.79267578 -0.58804688 15.27285156 -1.27734375 15.76757812 C-3.15566935 17.03886137 -4.90297506 18.13501667 -7 19 C-9.68359375 18.48046875 -9.68359375 18.48046875 -12 17 C-12.81082031 16.525625 -13.62164062 16.05125 -14.45703125 15.5625 C-15.23433594 15.046875 -16.01164062 14.53125 -16.8125 14 C-17.60269531 13.484375 -18.39289062 12.96875 -19.20703125 12.4375 C-19.79871094 11.963125 -20.39039062 11.48875 -21 11 C-21 10.34 -21 9.68 -21 9 C-18.66098927 7.15795465 -16.33684568 5.47447635 -13.875 3.8125 C-13.20984375 3.33619141 -12.5446875 2.85988281 -11.859375 2.36914062 C-7.61146803 -0.50860812 -5.12736617 -1.80882084 0 0 Z " fill="#0C2437" transform="translate(47,31)"/>
<path d="M0 0 C4.53486149 1.64904054 7.75452109 4.19730408 11.4375 7.25 C12.76608836 8.25629555 14.0981328 9.25809613 15.4375 10.25 C14.20094943 13.95965172 13.02419226 14.48360656 9.75 16.5 C8.90050781 17.04140625 8.05101563 17.5828125 7.17578125 18.140625 C3.67862928 19.55744548 2.03693949 19.33670976 -1.5625 18.25 C-4.7734375 16.40234375 -4.7734375 16.40234375 -7.9375 14.1875 C-8.99710938 13.45402344 -10.05671875 12.72054687 -11.1484375 11.96484375 C-11.94507813 11.39894531 -12.74171875 10.83304688 -13.5625 10.25 C-13.19628742 7.53884556 -12.75012558 6.42917035 -10.7421875 4.51171875 C-7.03677678 1.98073482 -4.54434632 0.3189015 0 0 Z " fill="#0C2538" transform="translate(71.5625,29.75)"/>
<path d="M0 0 C0.88964575 5.31151462 1.78547518 10.79888719 0 16 C-3.8788813 20.68517301 -9.5769439 23.46517827 -15 26 C-15.66 26 -16.32 26 -17 26 C-17.88964575 20.68848538 -18.78547518 15.20111281 -17 10 C-13.42758878 5.68500211 -5.71424563 0 0 0 Z " fill="#10324C" transform="translate(101,40)"/>
<path d="M0 0 C12.5 5 12.5 5 17 10 C18.46800009 15.21343376 17.69346008 20.70915644 17 26 C13.14958019 24.6243563 10.1183679 22.83312893 6.8125 20.4375 C3.52121677 18.02799361 3.52121677 18.02799361 0 16 C0 10.72 0 5.44 0 0 Z " fill="#10324D" transform="translate(12,40)"/>
<path d="M0 0 C0 0.66 0 1.32 0 2 C0.7321875 2.26683594 1.464375 2.53367187 2.21875 2.80859375 C5.7519326 4.32210596 8.61172559 6.42287987 11.71875 8.66015625 C14.17233571 10.10121772 16.19973684 10.6006667 19 11 C19 11.33 19 11.66 19 12 C17.35 12 15.7 12 14 12 C14 12.99 14 13.98 14 15 C11.52777066 16.97778347 9.96571924 18.06203405 6.75 17.85546875 C3.11158697 16.72363288 0.25753563 14.74951535 -2.8125 12.5625 C-3.40998047 12.15451172 -4.00746094 11.74652344 -4.62304688 11.32617188 C-6.12385238 10.27475042 -7.56765923 9.14293663 -9 8 C-9 7.34 -9 6.68 -9 6 C-9.66 5.67 -10.32 5.34 -11 5 C-9.92570402 4.15504811 -8.84010798 3.32445142 -7.75 2.5 C-7.14671875 2.0359375 -6.5434375 1.571875 -5.921875 1.09375 C-4 0 -4 0 0 0 Z " fill="#103048" transform="translate(83,21)"/>
<path d="M0 0 C0.33 0.99 0.66 1.98 1 3 C-0.03125 3.4125 -1.0625 3.825 -2.125 4.25 C-5.71677109 5.79767372 -8.87700759 7.62057721 -12 10 C-12.33 10.99 -12.66 11.98 -13 13 C-12.26910156 13.268125 -11.53820312 13.53625 -10.78515625 13.8125 C-8.0606426 14.97414397 -5.86328902 16.3124946 -3.4375 18 C-0.69584204 19.90062943 1.98063735 21.57590151 5 23 C4.01 23 3.02 23 2 23 C1.67 23.66 1.34 24.32 1 25 C0.11957031 24.3503125 -0.76085937 23.700625 -1.66796875 23.03125 C-2.84070145 22.18688246 -4.01390345 21.34316645 -5.1875 20.5 C-5.76564453 20.07074219 -6.34378906 19.64148438 -6.93945312 19.19921875 C-9.41112645 17.43972249 -11.55279159 16.09937965 -14.53125 15.4375 C-18.08433537 16.24706376 -20.53829796 18.25501998 -23.3125 20.5 C-23.86228516 20.92925781 -24.41207031 21.35851562 -24.97851562 21.80078125 C-26.32746102 22.85647765 -27.66491846 23.92682441 -29 25 C-29.66 24.01 -30.32 23.02 -31 22 C-29.92878906 21.30132812 -28.85757813 20.60265625 -27.75390625 19.8828125 C-26.35661033 18.96378565 -24.95948364 18.04450147 -23.5625 17.125 C-22.85544922 16.66480469 -22.14839844 16.20460938 -21.41992188 15.73046875 C-20.74638672 15.28574219 -20.07285156 14.84101562 -19.37890625 14.3828125 C-18.7557251 13.97434082 -18.13254395 13.56586914 -17.49047852 13.14501953 C-15.84455373 12.05314374 -15.84455373 12.05314374 -15 10 C-15.78375 9.731875 -16.5675 9.46375 -17.375 9.1875 C-20 8 -20 8 -22 5 C-20.88625 5.4640625 -20.88625 5.4640625 -19.75 5.9375 C-18.8425 6.288125 -17.935 6.63875 -17 7 C-16.360625 7.309375 -15.72125 7.61875 -15.0625 7.9375 C-12.03031455 8.02938441 -10.66881146 6.30105269 -8.51953125 4.34765625 C-6.00632051 2.11871613 -3.43281474 0 0 0 Z " fill="#297BAA" transform="translate(71,27)"/>
<path d="M0 0 C2.94887797 0.50842724 5.37371875 1.59306362 8 3 C6.46831523 7.16279971 3.79447636 8.87968117 0.1875 11.3125 C-1.36904297 12.38951172 -1.36904297 12.38951172 -2.95703125 13.48828125 C-6 15 -6 15 -8.76171875 14.98046875 C-11 14 -11 14 -12.3125 11.9375 C-12.539375 11.298125 -12.76625 10.65875 -13 10 C-11.71802734 9.04287109 -11.71802734 9.04287109 -10.41015625 8.06640625 C-9.29423934 7.23181293 -8.17835564 6.39717522 -7.0625 5.5625 C-6.21655273 4.93118164 -6.21655273 4.93118164 -5.35351562 4.28710938 C-2.57122778 2.26901433 -2.57122778 2.26901433 0 0 Z " fill="#0E2D46" transform="translate(31,24)"/>
<path d="M0 0 C3.69846715 0.47373624 6.1942151 2.31080866 9.1875 4.4375 C10.06792969 5.05496094 10.94835938 5.67242187 11.85546875 6.30859375 C14 8 14 8 15 10 C14.34 10 13.68 10 13 10 C13 10.66 13 11.32 13 12 C8.01662614 11.41372072 6.67695716 10.11797144 2 7 C2 12.61 2 18.22 2 24 C1.01 24 0.02 24 -1 24 C-1.02887236 20.18751574 -1.04675492 16.3750593 -1.0625 12.5625 C-1.07087891 11.47388672 -1.07925781 10.38527344 -1.08789062 9.26367188 C-1.09111328 8.22919922 -1.09433594 7.19472656 -1.09765625 6.12890625 C-1.10289307 5.17056885 -1.10812988 4.21223145 -1.11352539 3.22485352 C-1 1 -1 1 0 0 Z " fill="#2C9ABF" transform="translate(10,64)"/>
<path d="M0 0 C2.475 0.495 2.475 0.495 5 1 C6.66643489 6.50293834 7.56779788 11.64574896 5 17 C-1.16577227 23.31413191 -9.29242073 27.6697196 -16.85351562 32.12451172 C-20.95504126 34.56926032 -24.88190796 37.23022265 -28.8125 39.9375 C-32.11290965 42.16933999 -35.37398857 44.32307946 -39 46 C-39.33 45.34 -39.66 44.68 -40 44 C-39.3915625 43.62230469 -38.783125 43.24460938 -38.15625 42.85546875 C-29.59931607 37.48221759 -21.29560322 31.76552091 -13 26 C-11.97519531 25.2884375 -10.95039062 24.576875 -9.89453125 23.84375 C-7.59029205 22.2372494 -5.28695233 20.63100477 -3 19 C-2.2678125 18.60167969 -1.535625 18.20335938 -0.78125 17.79296875 C1.94031707 15.05349663 1.67479806 11.97346707 1.75 8.3125 C1.79447266 7.2596582 1.79447266 7.2596582 1.83984375 6.18554688 C1.91037033 4.45764576 1.95747068 2.7288168 2 1 C1.34 0.67 0.68 0.34 0 0 Z " fill="#2D8AAC" transform="translate(99,71)"/>
<path d="M0 0 C0.66 0.33 1.32 0.66 2 1 C1.8129248 2.01868164 1.62584961 3.03736328 1.43310547 4.08691406 C0.44440174 11.79931308 0.44440174 11.79931308 3.31066895 18.74584961 C7.70635384 22.84467066 12.94977285 25.75471928 18.125 28.75 C19.66732953 29.69782924 21.20643805 30.65092089 22.7421875 31.609375 C26.14207226 33.71981933 29.567808 35.77747456 33.02566528 37.79144287 C35.73350441 39.44900289 38.35833558 41.23889039 41 43 C41.33 38.05 41.66 33.1 42 28 C42.33 28 42.66 28 43 28 C43 33.61 43 39.22 43 45 C38.935557 45 38.31343446 44.8709056 35.19921875 42.7265625 C34.47653809 42.23615479 33.75385742 41.74574707 33.00927734 41.24047852 C32.24309082 40.70737061 31.4769043 40.1742627 30.6875 39.625 C29.06907732 38.52203723 27.45058665 37.41917424 25.83203125 36.31640625 C25.0220166 35.75969238 24.21200195 35.20297852 23.37744141 34.62939453 C19.89654724 32.24374166 16.38782028 29.90078006 12.875 27.5625 C12.26156738 27.15290039 11.64813477 26.74330078 11.01611328 26.32128906 C6.72661318 23.46319314 2.39575806 20.69128044 -2 18 C-1.34 17.67 -0.68 17.34 0 17 C0 11.39 0 5.78 0 0 Z " fill="#247A99" transform="translate(12,71)"/>
<path d="M0 0 C-0.33 6.93 -0.66 13.86 -1 21 C-1.33 21 -1.66 21 -2 21 C-2 16.05 -2 11.1 -2 6 C-3.5778125 6.9590625 -3.5778125 6.9590625 -5.1875 7.9375 C-8.10828412 9.61754452 -10.6171743 10.58996052 -14 11 C-14.296875 8.7421875 -14.296875 8.7421875 -14 6 C-11.953125 3.9453125 -11.953125 3.9453125 -9.25 2.125 C-8.36828125 1.50882812 -7.4865625 0.89265625 -6.578125 0.2578125 C-4 -1 -4 -1 0 0 Z " fill="#2C9BC4" transform="translate(104,65)"/>
<path d="M0 0 C0 0.66 0 1.32 0 2 C0.7321875 2.26683594 1.464375 2.53367187 2.21875 2.80859375 C5.7519326 4.32210596 8.61172559 6.42287987 11.71875 8.66015625 C14.17233571 10.10121772 16.19973684 10.6006667 19 11 C19 11.33 19 11.66 19 12 C17.35 12 15.7 12 14 12 C14 12.99 14 13.98 14 15 C13.01 15.33 12.02 15.66 11 16 C11 14.68 11 13.36 11 12 C10.4225 11.73574219 9.845 11.47148438 9.25 11.19921875 C6.17438015 9.55995608 3.66895213 7.37039563 1 5.14453125 C-0.91974304 3.77954826 -0.91974304 3.77954826 -3.0625 4.26171875 C-3.701875 4.50535156 -4.34125 4.74898437 -5 5 C-5.99 5.33 -6.98 5.66 -8 6 C-8.33 6.66 -8.66 7.32 -9 8 C-9 7.34 -9 6.68 -9 6 C-9.66 5.67 -10.32 5.34 -11 5 C-9.92570402 4.15504811 -8.84010798 3.32445142 -7.75 2.5 C-7.14671875 2.0359375 -6.5434375 1.571875 -5.921875 1.09375 C-4 0 -4 0 0 0 Z " fill="#1C527A" transform="translate(83,21)"/>
<path d="M0 0 C2.9843696 1.12059014 5.41378825 2.92629825 8.0078125 4.75390625 C7.0178125 6.23890625 7.0178125 6.23890625 6.0078125 7.75390625 C6.0078125 7.09390625 6.0078125 6.43390625 6.0078125 5.75390625 C2.50022113 4.09754366 0.68030376 3.45610859 -2.9921875 4.75390625 C-5.03502714 6.00789221 -5.03502714 6.00789221 -6.9921875 7.56640625 C-7.68570312 8.10136719 -8.37921875 8.63632812 -9.09375 9.1875 C-11.13391525 10.82011562 -11.13391525 10.82011562 -13.3671875 13.12890625 C-13.9034375 13.66515625 -14.4396875 14.20140625 -14.9921875 14.75390625 C-15.6521875 14.75390625 -16.3121875 14.75390625 -16.9921875 14.75390625 C-16.9921875 14.09390625 -16.9921875 13.43390625 -16.9921875 12.75390625 C-17.6521875 12.42390625 -18.3121875 12.09390625 -18.9921875 11.75390625 C-18.35152344 11.30660156 -17.71085937 10.85929687 -17.05078125 10.3984375 C-16.18582031 9.79386719 -15.32085938 9.18929688 -14.4296875 8.56640625 C-13.51832031 7.93347656 -12.60695313 7.30054688 -11.66796875 6.6484375 C-10.05986088 5.50985017 -8.46767931 4.3474862 -6.91015625 3.140625 C-2.4570284 -0.30351527 -2.4570284 -0.30351527 0 0 Z " fill="#1B557A" transform="translate(32.9921875,21.24609375)"/>
<path d="M0 0 C0.66 0 1.32 0 2 0 C4.5502004 12.25698412 4.5502004 12.25698412 3 18 C-0.7282599 22.86686943 -6.57199686 25.44600075 -12 28 C-12.66 28.33 -13.32 28.66 -14 29 C-14.99 28.67 -15.98 28.34 -17 28 C-17 22.72 -17 17.44 -17 12 C-16.67 12 -16.34 12 -16 12 C-16 16.95 -16 21.9 -16 27 C-15.02417969 26.36191406 -14.04835938 25.72382812 -13.04296875 25.06640625 C-11.75792538 24.23159705 -10.4727629 23.39697118 -9.1875 22.5625 C-8.22360352 21.93118164 -8.22360352 21.93118164 -7.24023438 21.28710938 C-4.51609896 19.52277296 -2.09247829 18.0308261 1 17 C0.67 11.39 0.34 5.78 0 0 Z " fill="#237095" transform="translate(100,39)"/>
<path d="M0 0 C0.33 0 0.66 0 1 0 C1 5.61 1 11.22 1 17 C-3.20419266 17 -3.96251642 16.6866445 -7.2578125 14.4453125 C-8.04800781 13.91292969 -8.83820312 13.38054687 -9.65234375 12.83203125 C-10.87630859 11.98705078 -10.87630859 11.98705078 -12.125 11.125 C-13.36056641 10.29162109 -13.36056641 10.29162109 -14.62109375 9.44140625 C-20.66095344 5.33904656 -20.66095344 5.33904656 -23 3 C-19.35889821 3.55909966 -16.85599747 4.46968107 -13.79296875 6.50390625 C-13.04208984 6.99697266 -12.29121094 7.49003906 -11.51757812 7.99804688 C-10.74865234 8.51431641 -9.97972656 9.03058594 -9.1875 9.5625 C-8.39923828 10.08263672 -7.61097656 10.60277344 -6.79882812 11.13867188 C-4.86118337 12.41869174 -2.9299473 13.70840352 -1 15 C-0.67 10.05 -0.34 5.1 0 0 Z " fill="#2E719B" transform="translate(54,99)"/>
<path d="M0 0 C0.33 0 0.66 0 1 0 C1 5.28 1 10.56 1 16 C-2 17 -2 17 -3.68579102 16.22729492 C-4.28576904 15.81584229 -4.88574707 15.40438965 -5.50390625 14.98046875 C-6.16197266 14.53509766 -6.82003906 14.08972656 -7.49804688 13.63085938 C-8.17931641 13.15455078 -8.86058594 12.67824219 -9.5625 12.1875 C-10.24763672 11.72279297 -10.93277344 11.25808594 -11.63867188 10.77929688 C-14.29066518 8.96532304 -16.7226908 7.2773092 -19 5 C-13.54069953 5.45632451 -10.39485532 7.40841004 -6.125 10.5625 C-5.23554688 11.19961914 -5.23554688 11.19961914 -4.328125 11.84960938 C-2.87845035 12.89010166 -1.43822449 13.9437372 0 15 C0 10.05 0 5.1 0 0 Z " fill="#23739A" transform="translate(29,51)"/>
<path d="M0 0 C0.33 0.99 0.66 1.98 1 3 C-0.03125 3.4125 -1.0625 3.825 -2.125 4.25 C-8.57789018 6.9448053 -8.57789018 6.9448053 -13 12 C-13.66 12 -14.32 12 -15 12 C-15 11.34 -15 10.68 -15 10 C-15.78375 9.731875 -16.5675 9.46375 -17.375 9.1875 C-20 8 -20 8 -22 5 C-20.88625 5.4640625 -20.88625 5.4640625 -19.75 5.9375 C-18.8425 6.288125 -17.935 6.63875 -17 7 C-16.0409375 7.4640625 -16.0409375 7.4640625 -15.0625 7.9375 C-12.03031455 8.02938441 -10.66881146 6.30105269 -8.51953125 4.34765625 C-6.00632051 2.11871613 -3.43281474 0 0 0 Z " fill="#1F5674" transform="translate(71,27)"/>
<path d="M0 0 C0.99 0.33 1.98 0.66 3 1 C-5.21899852 6.84032365 -13.59622521 12.43109857 -22 18 C-22.66 17.34 -23.32 16.68 -24 16 C-23.35675781 15.59910156 -22.71351562 15.19820312 -22.05078125 14.78515625 C-17.79581941 12.10835429 -13.56324651 9.4306958 -9.48046875 6.49609375 C-8.90063232 6.08157959 -8.3207959 5.66706543 -7.72338867 5.23999023 C-6.58570266 4.42141717 -5.45415978 3.59422925 -4.3293457 2.75805664 C-2.75 1.625 -2.75 1.625 0 0 Z " fill="#29799C" transform="translate(83,99)"/>
<path d="M0 0 C3 0 3 0 4.87109375 1.7734375 C5.57363281 2.50820313 6.27617188 3.24296875 7 4 C8.66134927 5.24404353 10.35001333 6.45234698 12.0625 7.625 C12.91972656 8.21539062 13.77695313 8.80578125 14.66015625 9.4140625 C16.43495158 10.61701225 18.21603555 11.81069037 20 13 C19.34 13 18.68 13 18 13 C18 13.66 18 14.32 18 15 C16 15 16 15 14.265625 13.2890625 C13.51796875 12.53367187 12.7703125 11.77828125 12 11 C9.38599935 9.01579743 6.74405632 7.08239822 4.0703125 5.1796875 C2.67910844 4.16541065 1.33494041 3.08726279 0 2 C0 1.34 0 0.68 0 0 Z " fill="#2279A8" transform="translate(71,27)"/>
<path d="M0 0 C0.99 0.33 1.98 0.66 3 1 C-1.3730543 5.81035973 -6.46277438 9.59926143 -12 13 C-12.66 13 -13.32 13 -14 13 C-14.33 13.66 -14.66 14.32 -15 15 C-15 14.34 -15 13.68 -15 13 C-15.66 12.67 -16.32 12.34 -17 12 C-16.25234375 11.52949219 -15.5046875 11.05898438 -14.734375 10.57421875 C-13.74953125 9.95160156 -12.7646875 9.32898437 -11.75 8.6875 C-10.77546875 8.07261719 -9.8009375 7.45773438 -8.796875 6.82421875 C-6.0454842 5.08345292 -6.0454842 5.08345292 -3.765625 3.26953125 C-2 2 -2 2 0 2 C0 1.34 0 0.68 0 0 Z " fill="#2D7DA5" transform="translate(40,27)"/>
<path d="M0 0 C0.66 0.33 1.32 0.66 2 1 C2 6.28 2 11.56 2 17 C0.35 16.67 -1.3 16.34 -3 16 C-3 15.34 -3 14.68 -3 14 C-2.34 14 -1.68 14 -1 14 C-1.01160156 13.15695313 -1.02320312 12.31390625 -1.03515625 11.4453125 C-1.04417969 10.34960938 -1.05320312 9.25390625 -1.0625 8.125 C-1.07410156 7.03445312 -1.08570312 5.94390625 -1.09765625 4.8203125 C-1 2 -1 2 0 0 Z " fill="#2292CB" transform="translate(31,53)"/>
<path d="M0 0 C0.33 0 0.66 0 1 0 C1 4.29 1 8.58 1 13 C1.99 13.33 2.98 13.66 4 14 C0.25 17 0.25 17 -2 17 C-2.05398987 14.72942623 -2.09278742 12.45848712 -2.125 10.1875 C-2.14820312 8.92292969 -2.17140625 7.65835938 -2.1953125 6.35546875 C-2 3 -2 3 0 0 Z " fill="#2494CE" transform="translate(82,54)"/>
<path d="M0 0 C0.33 0 0.66 0 1 0 C1 5.61 1 11.22 1 17 C-3 17 -3 17 -4.75 15.5 C-5.1625 15.005 -5.575 14.51 -6 14 C-3 14 -3 14 -1 15 C-0.67 10.05 -0.34 5.1 0 0 Z " fill="#1E6796" transform="translate(54,99)"/>
<path d="M0 0 C-1.12005631 3.36016893 -2.37211797 4.69064913 -5 7 C-5.66 7 -6.32 7 -7 7 C-7 6.34 -7 5.68 -7 5 C-7.66 4.67 -8.32 4.34 -9 4 C-4.5 0 -4.5 0 0 0 Z " fill="#1C5E86" transform="translate(23,29)"/>
<path d="M0 0 C3 0 3 0 5 1.8125 C5.66 2.534375 6.32 3.25625 7 4 C7.5775 4.5775 8.155 5.155 8.75 5.75 C9.1625 6.1625 9.575 6.575 10 7 C9.01 7.495 9.01 7.495 8 8 C6.66102417 7.04956626 5.32894573 6.08940853 4 5.125 C3.2575 4.59132813 2.515 4.05765625 1.75 3.5078125 C1.1725 3.01023437 0.595 2.51265625 0 2 C0 1.34 0 0.68 0 0 Z " fill="#327DA9" transform="translate(71,27)"/>
<path d="M0 0 C0.33 0 0.66 0 1 0 C1 4.95 1 9.9 1 15 C2.32 14.67 3.64 14.34 5 14 C4.67 14.99 4.34 15.98 4 17 C2.68 16.67 1.36 16.34 0 16 C0 10.72 0 5.44 0 0 Z " fill="#1C6E9E" transform="translate(83,51)"/>
<path d="M0 0 C0.58265625 0.21527344 1.1653125 0.43054688 1.765625 0.65234375 C0.775625 0.98234375 -0.214375 1.31234375 -1.234375 1.65234375 C-2.24080448 2.98083066 -3.24129679 4.31384704 -4.234375 5.65234375 C-4.894375 5.65234375 -5.554375 5.65234375 -6.234375 5.65234375 C-6.564375 6.31234375 -6.894375 6.97234375 -7.234375 7.65234375 C-7.234375 6.99234375 -7.234375 6.33234375 -7.234375 5.65234375 C-7.894375 5.32234375 -8.554375 4.99234375 -9.234375 4.65234375 C-8.16330383 3.78285058 -7.07691556 2.9322017 -5.984375 2.08984375 C-5.38109375 1.61417969 -4.7778125 1.13851563 -4.15625 0.6484375 C-2.234375 -0.34765625 -2.234375 -0.34765625 0 0 Z " fill="#194E74" transform="translate(81.234375,21.34765625)"/>
<path d="M0 0 C0 0.99 0 1.98 0 3 C-1.8125 4.5625 -1.8125 4.5625 -4 6 C-4.99 6.66 -5.98 7.32 -7 8 C-7.99 7.67 -8.98 7.34 -10 7 C-6.7 4.69 -3.4 2.38 0 0 Z " fill="#2B89AF" transform="translate(100,64)"/>
<path d="M0 0 C1.98 0.99 1.98 0.99 4 2 C3.01 2.495 3.01 2.495 2 3 C2 7.29 2 11.58 2 16 C1.34 16 0.68 16 0 16 C0 10.72 0 5.44 0 0 Z " fill="#16496C" transform="translate(12,40)"/>
<path d="M0 0 C0.66 0.33 1.32 0.66 2 1 C1.34 1.66 0.68 2.32 0 3 C-0.39764263 4.98821313 -0.73775349 6.98944339 -1 9 C-0.34 9.33 0.32 9.66 1 10 C0.01 10.33 -0.98 10.66 -2 11 C-2.66 10.34 -3.32 9.68 -4 9 C-3.34 9 -2.68 9 -2 9 C-2 6.36 -2 3.72 -2 1 C-1.34 0.67 -0.68 0.34 0 0 Z " fill="#113B56" transform="translate(58,25)"/>
<path d="M0 0 C3.99455527 0.61454696 6.74466336 2.70646737 10 5 C9.01 5.33 8.02 5.66 7 6 C5.17578125 5.0390625 5.17578125 5.0390625 3.3125 3.625 C2.68988281 3.16351563 2.06726563 2.70203125 1.42578125 2.2265625 C0.95527344 1.82179688 0.48476563 1.41703125 0 1 C0 0.67 0 0.34 0 0 Z " fill="#2B85A2" transform="translate(23,96)"/>
<path d="M0 0 C0.66 0.33 1.32 0.66 2 1 C0.3125 3.5 0.3125 3.5 -2 6 C-4.75 6.3125 -4.75 6.3125 -7 6 C-4.74259377 3.66475218 -2.7194239 1.81294927 0 0 Z " fill="#0D304A" transform="translate(69,60)"/>
</svg>
